<svg width="68" height="20" viewBox="0 0 68 20" fill="none" xmlns="http://www.w3.org/2000/svg">
<path d="M39.2232 0C33.7036 0 29.6387 4.2004 29.6387 9.8148C29.6387 15.1716 33.0178 19.6282 39.3932 19.6282C42.4737 19.6282 45.3842 18.386 47.0102 16.5012C47.3088 16.1577 47.5231 15.7713 47.5231 15.3434C47.5293 15.1229 47.4904 14.9035 47.4089 14.6986C47.3273 14.4937 47.2049 14.3076 47.0491 14.1517C46.8932 13.9959 46.7072 13.8736 46.5025 13.7923C46.2978 13.711 46.0787 13.6724 45.8586 13.6789C45.3456 13.6789 44.8755 13.9795 44.5326 14.3215C43.121 15.6511 41.7936 16.4225 39.5689 16.4225C36.0183 16.4225 34.0065 14.1927 33.7936 11.236H46.5858C47.7418 11.236 48.1261 10.5504 48.1261 9.8649C48.1218 4.3764 44.6141 0 39.2232 0ZM33.8751 7.9715C34.2594 5.3153 36.2698 3.2143 39.2232 3.2143C42.1322 3.2143 44.0568 5.3997 44.3998 7.9715H33.8751Z" fill="#4F868E"/>
</svg>
